<svg id="Layer_1" data-name="Layer 1" xmlns="http://www.w3.org/2000/svg" xmlns:xlink="http://www.w3.org/1999/xlink" viewBox="0 0 512 512"><defs><linearGradient id="linear-gradient" x1="428.34" y1="512" x2="428.34" gradientUnits="userSpaceOnUse"><stop offset="0" stop-color="#231f20"/><stop offset="1" stop-color="#58595b"/></linearGradient><linearGradient id="linear-gradient-2" x1="256" x2="256" y2="129.31" xlink:href="#linear-gradient"/><linearGradient id="linear-gradient-3" x1="83.66" x2="83.66" y2="286.28" xlink:href="#linear-gradient"/></defs><title>chart</title><path d="M466.74,0H390a25.67,25.67,0,0,0-25.61,25.61V486.42A25.66,25.66,0,0,0,390,512h76.79a25.64,25.64,0,0,0,25.6-25.58V25.61A25.65,25.65,0,0,0,466.74,0Z" fill-rule="evenodd" fill="url(#linear-gradient)"/><path d="M294.4,129.31H217.62A25.67,25.67,0,0,0,192,154.92v331.5A25.66,25.66,0,0,0,217.62,512H294.4A25.64,25.64,0,0,0,320,486.42V154.92A25.65,25.65,0,0,0,294.4,129.31Z" fill-rule="evenodd" fill="url(#linear-gradient-2)"/><path d="M122.06,286.28H45.28A25.67,25.67,0,0,0,19.66,311.9V486.42A25.66,25.66,0,0,0,45.28,512h76.79a25.65,25.65,0,0,0,25.6-25.58V311.9A25.65,25.65,0,0,0,122.06,286.28Z" fill-rule="evenodd" fill="url(#linear-gradient-3)"/></svg>